<?xml version="1.0" encoding="utf-8"?>
<!-- Generator: Adobe Illustrator 21.0.2, SVG Export Plug-In . SVG Version: 6.00 Build 0)  -->
<svg version="1.1" id="Layer_1" xmlns="http://www.w3.org/2000/svg" xmlns:xlink="http://www.w3.org/1999/xlink" x="0px" y="0px"
	 viewBox="0 0 24 24" style="enable-background:new 0 0 24 24;" xml:space="preserve">
<style type="text/css">
	.st0{fill:none;}
	.st1{fill:#4D4D4D;}
</style>
<path class="st0" d="M-74,29h48v48h-48V29z M0,0h24v24H0V0z M0,0h24v24H0V0z"/>
<path class="st1" d="M19.6,11.2c0.2,0.4,0.3,0.8,0.3,1.3c0,0.5-0.1,0.9-0.3,1.3c-0.2,0.4-0.4,0.8-0.7,1.1c-0.3,0.3-0.7,0.5-1.1,0.7
	s-0.8,0.3-1.3,0.3c-0.5,0-1-0.1-1.4-0.3c-0.4-0.2-0.8-0.5-1.1-0.9c0,0,0-0.1,0-0.1c0,0,0-0.1,0-0.1l0.6-0.6c0,0,0.1,0,0.1,0
	c0,0,0.1,0,0.1,0.1c0.2,0.3,0.5,0.5,0.8,0.6c0.3,0.2,0.6,0.2,1,0.2c0.3,0,0.6-0.1,0.9-0.2c0.3-0.1,0.5-0.3,0.7-0.5
	c0.2-0.2,0.4-0.4,0.5-0.7c0.1-0.3,0.2-0.6,0.2-0.9c0-0.3-0.1-0.6-0.2-0.9c-0.1-0.3-0.3-0.5-0.5-0.7c-0.2-0.2-0.4-0.4-0.7-0.5
	c-0.3-0.1-0.6-0.2-0.9-0.2c-0.3,0-0.6,0.1-0.8,0.2c-0.3,0.1-0.5,0.3-0.7,0.4l0.6,0.6c0.1,0.1,0.1,0.2,0.1,0.3c0,0.1-0.1,0.2-0.3,0.2
	h-1.9c-0.1,0-0.1,0-0.2-0.1c-0.1-0.1-0.1-0.1-0.1-0.2V9.7c0-0.1,0.1-0.2,0.2-0.3c0.1,0,0.2,0,0.3,0.1l0.6,0.6
	c0.3-0.3,0.7-0.5,1.1-0.7c0.4-0.2,0.8-0.2,1.2-0.2c0.5,0,0.9,0.1,1.3,0.3c0.4,0.2,0.8,0.4,1.1,0.7C19.2,10.4,19.4,10.8,19.6,11.2
	 M21,19h-9V6h9V19z M21,4H3C1.9,4,1,4.9,1,6v13c0,1.1,0.9,2,2,2h18c1.1,0,2-0.9,2-2V6C23,4.9,22.1,4,21,4z"/>
</svg>
